# xmcd
#
# Track frame offsets:
#	150
#	20563
#	39003
#	64161
#	84958
#	104996
#	118565
#	137494
#	155951
#	173488
#	194826
#	217822
#	235497
#
# Disc length: 3420 seconds
#
# Revision: 0
# Processed by: cddbd v1.5.2PL0 Copyright (c) Steve Scherf et al.
# Submitted via: EasyCDDAExtractor 2010.6.0.0
#
DISCID=b30d5a0d
DTITLE=赵鹏 - 低音共鸣
DYEAR=2011
DGENRE=pop
TTITLE0=北国之春
TTITLE1=橄榄树
TTITLE2=乌兰巴托的夜晚
TTITLE3=落红泪
TTITLE4=滚滚红尘
TTITLE5=啊朋友再见
TTITLE6=吻你
TTITLE7=爱的箴言
TTITLE8=晚秋
TTITLE9=红河谷
TTITLE10=懂你
TTITLE11=童年
TTITLE12=一场游戏一场梦
EXTD=
EXTT0=
EXTT1=
EXTT2=
EXTT3=
EXTT4=
EXTT5=
EXTT6=
EXTT7=
EXTT8=
EXTT9=
EXTT10=
EXTT11=
EXTT12=
PLAYORDER=
